<mxfile host="65bd71144e">
    <diagram id="5Ud88WsNUZEXUUf5udLT" name="第1頁">
        <mxGraphModel dx="1136" dy="787" grid="1" gridSize="10" guides="1" tooltips="1" connect="1" arrows="1" fold="1" page="1" pageScale="1" pageWidth="827" pageHeight="1169" math="0" shadow="0">
            <root>
                <mxCell id="0"/>
                <mxCell id="1" parent="0"/>
                <mxCell id="2" value="&lt;h1&gt;&lt;font color=&quot;#000000&quot;&gt;第一步&lt;/font&gt;&lt;/h1&gt;" style="rounded=0;whiteSpace=wrap;html=1;fillColor=#3DEF37;fontColor=#ffffff;strokeColor=#001DBC;gradientColor=default;gradientDirection=east;" vertex="1" parent="1">
                    <mxGeometry x="45" y="100" width="90" height="40" as="geometry"/>
                </mxCell>
                <mxCell id="3" value="&lt;h2&gt;收集資料&lt;/h2&gt;" style="rounded=1;whiteSpace=wrap;html=1;fontColor=#ffffff;fillColor=#6a00ff;gradientDirection=east;strokeColor=#3700CC;gradientColor=#F05454;" vertex="1" parent="1">
                    <mxGeometry x="30" y="170" width="120" height="60" as="geometry"/>
                </mxCell>
                <mxCell id="4" value="&lt;h1&gt;&lt;font color=&quot;#000000&quot;&gt;第二步&lt;/font&gt;&lt;/h1&gt;" style="rounded=0;whiteSpace=wrap;html=1;fillColor=#3DEF37;fontColor=#ffffff;strokeColor=#001DBC;gradientColor=default;gradientDirection=east;" vertex="1" parent="1">
                    <mxGeometry x="175" y="100" width="90" height="40" as="geometry"/>
                </mxCell>
                <mxCell id="5" value="&lt;h2&gt;確認範圍&lt;/h2&gt;" style="rounded=1;whiteSpace=wrap;html=1;fontColor=#ffffff;fillColor=#6a00ff;gradientDirection=east;strokeColor=#3700CC;gradientColor=#F05454;" vertex="1" parent="1">
                    <mxGeometry x="160" y="170" width="120" height="60" as="geometry"/>
                </mxCell>
                <mxCell id="10" value="&lt;h1&gt;&lt;font color=&quot;#000000&quot;&gt;第三步&lt;/font&gt;&lt;/h1&gt;" style="rounded=0;whiteSpace=wrap;html=1;fillColor=#3DEF37;fontColor=#ffffff;strokeColor=#001DBC;gradientColor=default;gradientDirection=east;" vertex="1" parent="1">
                    <mxGeometry x="309" y="100" width="90" height="40" as="geometry"/>
                </mxCell>
                <mxCell id="11" value="&lt;h2&gt;設計系統架構&lt;/h2&gt;" style="rounded=1;whiteSpace=wrap;html=1;fontColor=#ffffff;fillColor=#6a00ff;gradientDirection=east;strokeColor=#3700CC;gradientColor=#F05454;" vertex="1" parent="1">
                    <mxGeometry x="294" y="170" width="120" height="60" as="geometry"/>
                </mxCell>
                <mxCell id="12" value="&lt;h1&gt;&lt;font color=&quot;#000000&quot;&gt;第四步&lt;/font&gt;&lt;/h1&gt;" style="rounded=0;whiteSpace=wrap;html=1;fillColor=#3DEF37;fontColor=#ffffff;strokeColor=#001DBC;gradientColor=default;gradientDirection=east;" vertex="1" parent="1">
                    <mxGeometry x="445" y="100" width="90" height="40" as="geometry"/>
                </mxCell>
                <mxCell id="13" value="&lt;h2&gt;介面設計&lt;/h2&gt;" style="rounded=1;whiteSpace=wrap;html=1;fontColor=#ffffff;fillColor=#6a00ff;gradientDirection=east;strokeColor=#3700CC;gradientColor=#F05454;" vertex="1" parent="1">
                    <mxGeometry x="430" y="170" width="120" height="60" as="geometry"/>
                </mxCell>
                <mxCell id="19" value="&lt;h2&gt;文黨撰寫&lt;/h2&gt;" style="rounded=1;whiteSpace=wrap;html=1;fontColor=#ffffff;fillColor=#6a00ff;gradientDirection=east;strokeColor=#3700CC;gradientColor=#F05454;" vertex="1" parent="1">
                    <mxGeometry x="696" y="170" width="120" height="60" as="geometry"/>
                </mxCell>
                <mxCell id="20" value="&lt;h1&gt;&lt;font color=&quot;#000000&quot;&gt;第六步&lt;/font&gt;&lt;/h1&gt;" style="rounded=0;whiteSpace=wrap;html=1;fillColor=#3DEF37;fontColor=#ffffff;strokeColor=#001DBC;gradientColor=default;gradientDirection=east;" vertex="1" parent="1">
                    <mxGeometry x="711" y="100" width="90" height="40" as="geometry"/>
                </mxCell>
                <mxCell id="21" value="&lt;h1&gt;&lt;font color=&quot;#000000&quot;&gt;第五步&lt;/font&gt;&lt;/h1&gt;" style="rounded=0;whiteSpace=wrap;html=1;fillColor=#3DEF37;fontColor=#ffffff;strokeColor=#001DBC;gradientColor=default;gradientDirection=east;" vertex="1" parent="1">
                    <mxGeometry x="575" y="100" width="90" height="40" as="geometry"/>
                </mxCell>
                <mxCell id="22" value="&lt;h2&gt;系統測試&lt;/h2&gt;" style="rounded=1;whiteSpace=wrap;html=1;fontColor=#ffffff;fillColor=#6a00ff;gradientDirection=east;strokeColor=#3700CC;gradientColor=#F05454;" vertex="1" parent="1">
                    <mxGeometry x="560" y="170" width="120" height="60" as="geometry"/>
                </mxCell>
            </root>
        </mxGraphModel>
    </diagram>
</mxfile>